<?xml version="1.0" encoding="UTF-8"?>
<svg xmlns="http://www.w3.org/2000/svg" viewBox="0 0 1024 1024" width="50px" height="50px">
  <path style="fill:rgb(27.450982%,87.450981%,94.117647%);fill-opacity:1;" d="M512 0C229.24 0 0 229.24 0 512c0 226.49 146.79 418.47 350.41 485.98 25.63 4.71 35.02-11.13 35.02-24.74 0-12.2-.47-52.41-.72-95.1-142.52 30.96-172.57-61.58-172.57-61.58-23.31-59.24-56.96-74.97-56.96-74.97-46.59-31.86 3.53-31.22 3.53-31.22 51.51 3.62 78.58 52.88 78.58 52.88 45.77 78.43 120.1 55.76 149.37 42.63 4.67-33.15 17.91-55.8 32.58-68.62-113.83-12.96-233.58-56.91-233.58-253.25 0-55.96 19.97-101.71 52.69-137.55-5.28-12.91-22.82-64.96 4.97-135.47 0 0 43.01-13.77 140.92 52.46 40.88-11.36 84.71-17.04 128.31-17.24 43.61.2 87.44 5.88 128.34 17.24 97.85-66.24 140.8-52.46 140.8-52.46 27.83 70.51 10.27 122.56 5 135.47 32.78 35.84 52.62 81.6 52.62 137.55 0 196.79-120.01 240.09-234.12 252.85 18.45 15.89 34.87 47.24 34.87 95.2 0 68.76-.62 124.2-.62 141.16 0 13.67 9.23 29.64 35.23 24.63C877.22 930.47 1024 738.49 1024 512 1024 229.24 794.76 0 512 0z"/>
</svg>
